<svg id="Capa_1" data-name="Capa 1" xmlns="http://www.w3.org/2000/svg" viewBox="0 0 128 128"><defs><style>.cls-1{fill:#f47605;}</style></defs><title>Mesa de trabajo 1</title><path class="cls-1" d="M8.36,74.36,9,65.48l.16.1L18.61,72l3.46,2.36,9.6,6.53-8.73,4.22a44.83,44.83,0,0,0,83.66-10.74h9.71A54.07,54.07,0,0,1,15.08,88.9L7,92.8Z"/><path class="cls-1" d="M9.7,56.68a54,54,0,0,1,103-14.21l8-3.83-1.34,18L118.58,66,117.23,65l-10-6.82-2.27-1.55-9-6.13,8-3.85a44.82,44.82,0,0,0-85.18,10Z"/><path class="cls-1" d="M58.14,100.16V91.27c-5.71-.09-11.63-1.67-15.07-3.87l2.36-5.89a28.56,28.56,0,0,0,14.19,3.78c7,0,11.72-3.61,11.72-8.62,0-4.84-3.84-7.83-11.13-10.47C50.16,62.68,44,58.63,44,51c0-7.3,5.81-12.84,14.88-14.16V27.93h6.11v8.53a28.72,28.72,0,0,1,12.81,3.08l-2.46,5.81a26,26,0,0,0-12.41-3c-7.59,0-10.44,4-10.44,7.57,0,4.57,3.65,6.86,12.22,10,10.15,3.69,15.27,8.27,15.27,16.1,0,6.95-5.42,13.46-15.57,15v9.15Z"/></svg>